Coordinates
version=1
nRows=6
nColumns=107
inDegrees=yes

Units are S.I. units (second, meters, Newtons, ...)
If the header above contains a line with 'inDegrees', this indicates whether rotational values are in degrees (yes) or radians (no).

endheader
time	sternoclavicular_r2	sternoclavicular_r3	unrotscap_r3	unrotscap_r2	acromioclavicular_r2	acromioclavicular_r3	acromioclavicular_r1	unrothum_r1	unrothum_r3	unrothum_r2	elv_angle	shoulder_elv	shoulder1_r2	shoulder_rot	elbow_flexion	pro_sup	deviation	flexion	proximal_distal_r1	proximal_distal_r3	cmc_flexion	cmc_abduction	mp_flexion	ip_flexion	mcp2_flexion	mcp2_abduction	pm2_flexion	md2_flexion	mcp3_flexion	mcp3_abduction	pm3_flexion	md3_flexion	mcp4_flexion	mcp4_abduction	pm4_flexion	md4_flexion	mcp5_flexion	mcp5_abduction	pm5_flexion	md5_flexion	bicpt_tx	bicpt_ty	bicpt_tz	bicpt2_tx	bicpt2_ty	bicpt2_tz	ptpt_tx	ptpt_ty	ptpt_tz	FCUpt_tx	FCUpt_ty	FCUpt_tz	EDCpt_tx	EDCpt_ty	EDCpt_tz	APLpt_tx	APLpt_ty	APLpt_tz	FPLpt_tx	FPLpt_ty	FPLpt_tz	FPLpt2_tx	FPLpt2_ty	FPLpt2_tz	PEC1pt2_tx	PEC1pt2_ty	PEC1pt2_tz	PEC1pt3_tx	PEC1pt3_ty	PEC1pt3_tz	PEC2pt2_tx	PEC2pt2_ty	PEC2pt2_tz	PEC2pt3_tx	PEC2pt3_ty	PEC2pt3_tz	PEC3pt2_tx	PEC3pt2_ty	PEC3pt2_tz	PEC3pt3_tx	PEC3pt3_ty	PEC3pt3_tz	DELT2pt2a_tx	DELT2pt2a_ty	DELT2pt2a_tz	DELT2pt2_tx	DELT2pt2_ty	DELT2pt2_tz	LAT1pt2_tx	LAT1pt2_ty	LAT1pt2_tz	LAT1pt3_tx	LAT1pt3_ty	LAT1pt3_tz	LAT2pt2_tx	LAT2pt2_ty	LAT2pt2_tz	LAT2pt3_tx	LAT2pt3_ty	LAT2pt3_tz	LAT3pt2_tx	LAT3pt2_ty	LAT3pt2_tz	LAT3pt3_tx	LAT3pt3_ty	LAT3pt3_tz
      0.33333333	     -0.32454137	      0.13746041	     -0.13746041	      0.32454137	     -0.06571303	      0.53106955	      0.23871211	     -0.23871211	     -0.53106955	      0.06571303	     99.62324341	     76.83805338	     -1.73875361	    -23.50279734	     28.04442883	     47.44856861	      0.16865956	      0.10864943	      0.20561176	      0.05432472	     34.40818357	    -20.52943174	     12.20894388	      7.34004893	    -15.34687875	     10.50755278	     12.04086697	    -32.41660648	    -17.78309812	      4.05601104	      6.76222431	      9.43003384	    -23.58020405	      3.83423674	     -5.87428274	     20.27261205	    -35.11806014	    -13.13513677	      9.65538547	      5.11495899	      0.00082762	     -0.03081432	     -0.00481774	      0.01652486	     -0.01781841	     -0.00663599	      0.00404409	     -0.06716698	     -0.00387224	      0.00853871	     -0.18333224	     -0.00041840	     -0.00569381	      0.00169180	      0.00007791	     -0.00012105	     -0.00004842	     -0.00024210	     -0.00015494	     -0.00046482	     -0.00026146	     -0.00001253	     -0.00020247	     -0.00024297	      0.00251858	      0.00883638	      0.00614705	     -0.00823875	      0.01989254	     -0.01886803	      0.00251858	      0.00883638	      0.00614705	      0.00055494	      0.01844115	     -0.00969014	      0.00397326	      0.00491380	      0.01602921	      0.00000000	      0.00789689	      0.00000000	     -0.00721425	     -0.03333921	     -0.00651200	      0.01571550	     -0.00054188	     -0.00460846	     -0.00089644	      0.01502612	     -0.00614705	      0.00247589	      0.02168542	     -0.01792889	     -0.00601899	      0.01301979	     -0.00550673	     -0.01255023	      0.02749097	     -0.03077794	     -0.02356369	      0.01455655	     -0.00738500	     -0.01562375	      0.03175976	     -0.03846175
      0.36666667	     -0.32485500	      0.13759325	     -0.13759325	      0.32485500	     -0.06577653	      0.53158278	      0.23894280	     -0.23894280	     -0.53158278	      0.06577653	     99.61114155	     76.91230987	     -1.73854239	    -23.18309249	     27.87327921	     46.85772200	      0.16281438	      0.09178090	      0.19926462	      0.04589045	     34.53160975	    -20.64625121	     12.53101906	      6.55748117	    -15.62375197	     10.51984735	     12.63241967	    -32.65702612	    -18.21187752	      4.02039787	      7.24497286	     10.55287866	    -23.91367063	      3.78604114	     -5.85210197	     21.29356569	    -35.19557183	    -13.14675879	      9.41075469	      5.16540407	      0.00082196	     -0.03079470	     -0.00481458	      0.01653342	     -0.01777191	     -0.00670499	      0.00408774	     -0.06713875	     -0.00382464	      0.00847792	     -0.18334573	     -0.00041739	     -0.00562291	      0.00166646	      0.00008445	     -0.00010096	     -0.00004038	     -0.00020192	     -0.00012923	     -0.00038768	     -0.00021807	     -0.00001258	     -0.00020083	     -0.00024099	      0.00252102	      0.00884492	      0.00615299	     -0.00824672	      0.01991176	     -0.01888626	      0.00252102	      0.00884492	      0.00615299	      0.00055548	      0.01845897	     -0.00969951	      0.00397605	      0.00491855	      0.01603595	      0.00000000	      0.00791227	      0.00000000	     -0.00722122	     -0.03337142	     -0.00652476	      0.01554531	     -0.00053165	     -0.00448124	     -0.00089731	      0.01504064	     -0.00615299	      0.00247829	      0.02170638	     -0.01794622	     -0.00602480	      0.01303237	     -0.00551205	     -0.01256235	      0.02751754	     -0.03080768	     -0.02358646	      0.01457062	     -0.00739213	     -0.01563885	      0.03179045	     -0.03849892
      0.40000000	     -0.32296930	      0.13679455	     -0.13679455	      0.32296930	     -0.06539471	      0.52849707	      0.23755580	     -0.23755580	     -0.52849707	      0.06539471	     99.99276533	     76.46585227	     -1.74520298	    -25.40644681	     28.07229822	     48.88109380	      0.15420171	      0.08250745	      0.18981140	      0.04125372	     34.27362296	    -20.60984376	     12.90304153	      6.62303005	    -14.98133086	     10.59427703	     12.43992346	    -32.98310902	    -17.36760166	      4.08053859	      6.52542646	      9.78346907	    -23.42196409	      3.85755513	     -5.74311243	     21.60697871	    -34.88225290	    -13.19466221	     10.11668505	      5.07963047	      0.00082854	     -0.03081751	     -0.00481826	      0.01650078	     -0.01782598	     -0.00646667	      0.00393824	     -0.06723542	     -0.00398763	      0.00868655	     -0.18329912	     -0.00041977	     -0.00586572	      0.00175369	      0.00006129	     -0.00009012	     -0.00003605	     -0.00018023	     -0.00011535	     -0.00034605	     -0.00019465	     -0.00001247	     -0.00020424	     -0.00024509	      0.00250638	      0.00879358	      0.00611727	     -0.00819885	      0.01979618	     -0.01877663	      0.00250638	      0.00879358	      0.00611727	      0.00055225	      0.01835182	     -0.00964320	      0.00395924	      0.00489000	      0.01599519	      0.00000000	      0.00782003	      0.00000000	     -0.00717930	     -0.03317771	     -0.00644820	      0.01670059	     -0.00060350	     -0.00539628	     -0.00089210	      0.01495333	     -0.00611727	      0.00246390	      0.02158038	     -0.01784205	     -0.00598983	      0.01295672	     -0.00548006	     -0.01248943	      0.02735781	     -0.03062885	     -0.02344955	      0.01448604	     -0.00734922	     -0.01554807	      0.03160591	     -0.03827544
      0.43333333	     -0.32570816	      0.13795460	     -0.13795460	      0.32570816	     -0.06594928	      0.53297886	      0.23957033	     -0.23957033	     -0.53297886	      0.06594928	     99.36554652	     77.11430170	     -1.73425595	    -22.04176629	     27.95337005	     45.90058098	      0.17604015	      0.10866996	      0.21354584	      0.05433498	     34.59683694	    -20.60614554	     11.90975785	      7.96354290	    -15.16015796	     10.55021902	     12.05895086	    -31.94066847	    -17.77509410	      4.09978645	      6.92070482	      9.49024025	    -23.67721754	      3.86420570	     -5.21208127	     19.48036303	    -34.68376537	    -13.16720419	      9.20246951	      5.12603093	      0.00082461	     -0.03080388	     -0.00481606	      0.01654562	     -0.01779367	     -0.00681573	      0.00415847	     -0.06709302	     -0.00374754	      0.00837967	     -0.18336738	     -0.00041520	     -0.00550806	      0.00162564	      0.00009463	     -0.00012107	     -0.00004843	     -0.00024214	     -0.00015497	     -0.00046491	     -0.00026151	     -0.00001260	     -0.00019996	     -0.00023995	      0.00252764	      0.00886815	      0.00616915	     -0.00826837	      0.01996405	     -0.01893586	      0.00252764	      0.00886815	      0.00616915	      0.00055694	      0.01850745	     -0.00972498	      0.00398364	      0.00493147	      0.01605424	      0.00000000	      0.00795419	      0.00000000	     -0.00724018	     -0.03345907	     -0.00655955	      0.01492658	     -0.00049546	     -0.00403938	     -0.00089967	      0.01508014	     -0.00616915	      0.00248480	      0.02176339	     -0.01799335	     -0.00604063	      0.01306660	     -0.00552653	     -0.01259535	      0.02758981	     -0.03088859	     -0.02364841	      0.01460889	     -0.00741155	     -0.01567992	      0.03187394	     -0.03860002
      0.46666667	     -0.32544254	      0.13784210	     -0.13784210	      0.32544254	     -0.06589549	      0.53254421	      0.23937496	     -0.23937496	     -0.53254421	      0.06589549	     99.42348165	     77.05141489	     -1.73526711	    -22.30434317	     27.90549427	     45.58343152	      0.16842155	      0.09019600	      0.20535464	      0.04509800	     34.30101031	    -20.57976624	     12.44875354	      7.34414629	    -14.73715131	     10.55463270	     11.72276698	    -31.63395351	    -17.55671595	      4.12332365	      6.69441359	      9.35366526	    -23.58036599	      3.89588185	     -5.93129284	     20.40850148	    -34.96244797	    -13.18420457	      9.68316836	      5.10704154	      0.00082303	     -0.03079840	     -0.00481518	      0.01654919	     -0.01778066	     -0.00685214	      0.00418190	     -0.06707787	     -0.00372199	      0.00834718	     -0.18337449	     -0.00041432	     -0.00547000	      0.00161218	      0.00009789	     -0.00009908	     -0.00003963	     -0.00019816	     -0.00012682	     -0.00038047	     -0.00021401	     -0.00001248	     -0.00020388	     -0.00024466	      0.00252558	      0.00886092	      0.00616412	     -0.00826163	      0.01994777	     -0.01892042	      0.00252558	      0.00886092	      0.00616412	      0.00055648	      0.01849236	     -0.00971705	      0.00398128	      0.00492745	      0.01604856	      0.00000000	      0.00794112	      0.00000000	     -0.00723428	     -0.03343178	     -0.00654871	      0.01507047	     -0.00050374	     -0.00413931	     -0.00089893	      0.01506784	     -0.00616412	      0.00248277	      0.02174564	     -0.01797868	     -0.00603570	      0.01305595	     -0.00552202	     -0.01258508	      0.02756731	     -0.03086340	     -0.02362912	      0.01459697	     -0.00740550	     -0.01566713	      0.03184795	     -0.03856855
      0.50000000	     -0.32546329	      0.13785089	     -0.13785089	      0.32546329	     -0.06589970	      0.53257817	      0.23939022	     -0.23939022	     -0.53257817	      0.06589970	     99.43081743	     77.05632760	     -1.73539514	    -22.30559882	     27.91421444	     45.58018816	      0.16842269	      0.09018949	      0.20535535	      0.04509475	     34.30297457	    -20.58018729	     12.44983601	      7.34456041	    -14.73796180	     10.55477963	     11.72272340	    -31.63397533	    -17.55761999	      4.12338623	      6.69439011	      9.35371007	    -23.58106616	      3.89627660	     -5.93134137	     20.40840882	    -34.96157368	    -13.18461724	      9.68325005	      5.10705752	      0.00082332	     -0.03079940	     -0.00481534	      0.01654921	     -0.01778303	     -0.00685251	      0.00418214	     -0.06707772	     -0.00372173	      0.00834685	     -0.18337456	     -0.00041431	     -0.00546961	      0.00161204	      0.00009792	     -0.00009909	     -0.00003964	     -0.00019818	     -0.00012683	     -0.00038050	     -0.00021403	     -0.00001249	     -0.00020386	     -0.00024463	      0.00252574	      0.00886149	      0.00616451	     -0.00826216	      0.01994904	     -0.01892163	      0.00252574	      0.00886149	      0.00616451	      0.00055652	      0.01849353	     -0.00971767	      0.00398146	      0.00492776	      0.01604900	      0.00000000	      0.00794214	      0.00000000	     -0.00723474	     -0.03343391	     -0.00654956	      0.01507116	     -0.00050378	     -0.00413980	     -0.00089899	      0.01506881	     -0.00616451	      0.00248293	      0.02174703	     -0.01797982	     -0.00603608	      0.01305678	     -0.00552237	     -0.01258588	      0.02756906	     -0.03086537	     -0.02363063	      0.01459791	     -0.00740598	     -0.01566813	      0.03184998	     -0.03857101
